<svg xmlns="http://www.w3.org/2000/svg" width="321.333" height="304" preserveAspectRatio="xMidYMid meet" version="1.0" viewBox="0 0 241 228"><g fill="#000" stroke="none"><path d="M990 2235 c-387 -70 -713 -347 -846 -721 -144 -402 -44 -852 255 -1153 166 -168 365 -272 600 -316 46 -8 86 -14 88 -12 4 5 33 299 33 338 0 24 -5 27 -82 43 -278 58 -499 275 -569 556 -30 116 -23 290 14 397 70 200 190 340 369 433 87 46 209 80 286 80 l52 0 0 185 0 185 -62 -1 c-35 0 -97 -7 -138 -14z" transform="translate(0.000000,228.000000) scale(0.100000,-0.100000)"/><path d="M966 1729 c-78 -18 -168 -70 -230 -133 -191 -192 -193 -485 -5 -682 120 -124 282 -175 447 -140 382 81 524 548 248 821 -69 68 -136 107 -221 130 -64 16 -177 18 -239 4z m-168 -371 c3 -15 -1 -15 -27 -5 -93 35 -161 -103 -89 -180 20 -22 29 -24 76 -20 53 6 67 -4 33 -23 -27 -14 -81 -12 -109 4 -78 43 -83 179 -10 231 32 22 121 17 126 -7z m227 7 c0 -5 -30 -11 -67 -13 l-68 -3 0 -39 0 -40 60 0 c47 0 60 -3 60 -15 0 -12 -13 -15 -60 -15 l-60 0 0 -45 0 -45 70 0 c56 0 70 -3 70 -15 0 -12 -16 -15 -85 -15 l-85 0 0 130 0 131 83 -3 c46 -2 82 -7 82 -13z m215 0 c0 -12 -14 -15 -66 -15 l-65 0 3 -42 3 -43 53 -3 c69 -4 67 -22 -3 -22 l-55 0 0 -60 c0 -47 -3 -60 -15 -60 -13 0 -15 21 -15 130 l0 130 80 0 c64 0 80 -3 80 -15z m167 -104 c24 -63 43 -120 43 -128 0 -27 -22 -12 -38 27 l-17 41 -54 -3 c-52 -3 -55 -4 -66 -37 -11 -35 -35 -54 -35 -29 0 11 37 114 79 221 20 52 42 30 88 -92z m128 -11 c0 -111 -2 -125 -17 -128 -16 -3 -18 8 -18 128 0 120 2 131 18 128 15 -3 17 -17 17 -128z" transform="translate(0.000000,228.000000) scale(0.100000,-0.100000)"/><path d="M1322 1287 c-12 -32 -22 -60 -22 -62 0 -3 18 -5 40 -5 45 0 46 3 21 75 l-18 50 -21 -58z" transform="translate(0.000000,228.000000) scale(0.100000,-0.100000)"/></g></svg>